<svg width="48" height="48" viewBox="0 0 48 48" fill="none" xmlns="http://www.w3.org/2000/svg">
<circle cx="24" cy="24" r="24" fill="#1ED760"/>
<path d="M38.1973 21.2764C39.2609 21.9097 40.6403 21.5583 41.2728 20.4916C41.9054 19.4264 41.5555 18.0487 40.4884 17.4153C31.5823 12.1287 17.4893 11.6313 9.01189 14.2051C7.82479 14.5658 7.1561 15.8189 7.51569 17.0056C7.87488 18.1916 9.12877 18.861 10.3147 18.501C17.7002 16.2597 30.4608 16.6822 38.1973 21.2764Z" fill="white"/>
<path d="M37.9435 28.0812C38.4849 27.2024 38.2076 26.0507 37.3277 25.5086C29.9204 20.9567 19.0839 19.6749 10.3673 22.3205C9.37902 22.6214 8.82139 23.6645 9.11924 24.6539C9.42018 25.6414 10.4648 26.199 11.4546 25.9C19.0851 23.5845 28.9201 24.7327 35.3698 28.6975C36.2497 29.238 37.4007 28.9619 37.9435 28.0812Z" fill="white"/>
<path d="M35.0073 34.6166C35.4383 33.9111 35.2162 32.9896 34.5114 32.5589C28.1848 28.6936 20.3431 27.7943 11.2004 29.8838C10.3935 30.0679 9.89103 30.8701 10.0755 31.6755C10.2595 32.4797 11.0614 32.9845 11.8664 32.8001C20.2212 30.8915 27.3142 31.6697 32.9503 35.1141C33.6551 35.5451 34.5762 35.3238 35.0073 34.6166Z" fill="white"/>
</svg>
