<svg width="48" height="48" viewBox="0 0 48 48" fill="none" xmlns="http://www.w3.org/2000/svg">
<circle cx="24" cy="24" r="24" fill="#1ED760"/>
<path d="M38.1968 21.2765C39.2605 21.9098 40.6398 21.5584 41.2724 20.4917C41.9049 19.4265 41.555 18.0488 40.4879 17.4154C31.5818 12.1289 17.4888 11.6314 9.0114 14.2052C7.8243 14.566 7.15561 15.8191 7.5152 17.0058C7.8744 18.1917 9.12828 18.8611 10.3142 18.5012C17.6997 16.2598 30.4603 16.6823 38.1968 21.2765Z" fill="white"/>
<path d="M37.9435 28.0811C38.4849 27.2023 38.2076 26.0506 37.3277 25.5085C29.9204 20.9566 19.0839 19.6748 10.3673 22.3204C9.37902 22.6213 8.82139 23.6643 9.11924 24.6538C9.42018 25.6413 10.4648 26.1989 11.4546 25.8999C19.0851 23.5843 28.9201 24.7326 35.3698 28.6973C36.2497 29.2379 37.4007 28.9618 37.9435 28.0811Z" fill="white"/>
<path d="M35.007 34.6165C35.438 33.9109 35.2159 32.9895 34.5111 32.5588C28.1846 28.6935 20.3428 27.7942 11.2002 29.8837C10.3933 30.0678 9.89078 30.87 10.0752 31.6754C10.2593 32.4796 11.0612 32.9844 11.8662 32.8C20.2209 30.8914 27.314 31.6696 32.9501 35.1139C33.6549 35.545 34.576 35.3236 35.007 34.6165Z" fill="white"/>
</svg>
