<svg width="38" height="32" viewBox="0 0 38 32" fill="none" xmlns="http://www.w3.org/2000/svg">
<path d="M19 20.5C20.25 20.5 21.3125 20.0625 22.1875 19.1875C23.0625 18.3125 23.5 17.25 23.5 16C23.5 14.75 23.0625 13.6875 22.1875 12.8125C21.3125 11.9375 20.25 11.5 19 11.5C17.75 11.5 16.6875 11.9375 15.8125 12.8125C14.9375 13.6875 14.5 14.75 14.5 16C14.5 17.25 14.9375 18.3125 15.8125 19.1875C16.6875 20.0625 17.75 20.5 19 20.5ZM19 18.7C18.25 18.7 17.6125 18.4375 17.0875 17.9125C16.5625 17.3875 16.3 16.75 16.3 16C16.3 15.25 16.5625 14.6125 17.0875 14.0875C17.6125 13.5625 18.25 13.3 19 13.3C19.75 13.3 20.3875 13.5625 20.9125 14.0875C21.4375 14.6125 21.7 15.25 21.7 16C21.7 16.75 21.4375 17.3875 20.9125 17.9125C20.3875 18.4375 19.75 18.7 19 18.7ZM19 23.5C16.5667 23.5 14.35 22.8208 12.35 21.4625C10.35 20.1042 8.9 18.2833 8 16C8.9 13.7167 10.35 11.8958 12.35 10.5375C14.35 9.17917 16.5667 8.5 19 8.5C21.4333 8.5 23.65 9.17917 25.65 10.5375C27.65 11.8958 29.1 13.7167 30 16C29.1 18.2833 27.65 20.1042 25.65 21.4625C23.65 22.8208 21.4333 23.5 19 23.5ZM19 21.5C20.8833 21.5 22.6125 21.0042 24.1875 20.0125C25.7625 19.0208 26.9667 17.6833 27.8 16C26.9667 14.3167 25.7625 12.9792 24.1875 11.9875C22.6125 10.9958 20.8833 10.5 19 10.5C17.1167 10.5 15.3875 10.9958 13.8125 11.9875C12.2375 12.9792 11.0333 14.3167 10.2 16C11.0333 17.6833 12.2375 19.0208 13.8125 20.0125C15.3875 21.0042 17.1167 21.5 19 21.5Z" fill="#4A4776"/>
</svg>
